<svg xmlns="http://www.w3.org/2000/svg" version="1.1" xmlns:xlink="http://www.w3.org/1999/xlink" xmlns:svgjs="http://svgjs.dev/svgjs" width="1440" height="812" preserveAspectRatio="none" viewBox="0 0 1440 812"><g mask="url(&quot;#SvgjsMask1831&quot;)" fill="none"><rect width="1440" height="812" x="0" y="0" fill="url(&quot;#SvgjsLinearGradient1832&quot;)"></rect><g mask="url(&quot;#SvgjsMask1833&quot;)"><path d="M15 405L45 405L75 405L105 405L135 405M255 435L285 405M165 435L195 405L225 405M-15 405L15 405L45 435L75 435L105 435L135 435L165 435L195 435L225 435L255 435L285 435L315 435L345 435L375 435L405 435" stroke="rgba(0, 151, 255, 1)" stroke-width="5"></path><path d="M397.5 435 a7.5 7.5 0 1 0 15 0 a7.5 7.5 0 1 0 -15 0zM127.5 405 a7.5 7.5 0 1 0 15 0 a7.5 7.5 0 1 0 -15 0zM277.5 405 a7.5 7.5 0 1 0 15 0 a7.5 7.5 0 1 0 -15 0zM217.5 405 a7.5 7.5 0 1 0 15 0 a7.5 7.5 0 1 0 -15 0z" fill="rgba(0, 151, 255, 1)"></path><path d="M-15 435L15 435L45 465L75 465L105 465L135 465L165 465L195 465L225 465L255 465L285 465L315 465L345 465L375 465" stroke="rgba(0, 151, 255, 1)" stroke-width="5"></path><path d="M367.5 465 a7.5 7.5 0 1 0 15 0 a7.5 7.5 0 1 0 -15 0z" fill="rgba(0, 151, 255, 1)"></path><path d="M105 375L135 345L165 345M-15 375L15 375L45 375L75 375L105 375L135 375L165 375L195 375" stroke="rgba(0, 151, 255, 1)" stroke-width="5"></path><path d="M187.5 375 a7.5 7.5 0 1 0 15 0 a7.5 7.5 0 1 0 -15 0zM157.5 345 a7.5 7.5 0 1 0 15 0 a7.5 7.5 0 1 0 -15 0z" fill="rgba(0, 151, 255, 1)"></path><path d="M195 495L225 525L255 555L285 555L315 555L345 555L375 525L405 525L435 525L465 525L495 525M795 555L825 585L855 585M495 495L525 465L555 465M615 495L645 525L675 525M705 525L735 555L765 555L795 585M255 495L285 525L315 525L345 525M585 495L615 525L645 555L675 555L705 555L735 585L765 585M-15 465L15 465L45 495L75 495L105 495L135 495L165 495L195 495L225 495L255 495L285 495L315 495L345 495L375 495L405 495L435 495L465 495L495 495L525 495L555 495L585 495L615 495L645 495L675 495L705 525L735 525L765 525L795 555L825 555L855 555L885 555" stroke="rgba(0, 151, 255, 1)" stroke-width="5"></path><path d="M877.5 555 a7.5 7.5 0 1 0 15 0 a7.5 7.5 0 1 0 -15 0zM487.5 525 a7.5 7.5 0 1 0 15 0 a7.5 7.5 0 1 0 -15 0zM847.5 585 a7.5 7.5 0 1 0 15 0 a7.5 7.5 0 1 0 -15 0zM547.5 465 a7.5 7.5 0 1 0 15 0 a7.5 7.5 0 1 0 -15 0zM667.5 525 a7.5 7.5 0 1 0 15 0 a7.5 7.5 0 1 0 -15 0zM787.5 585 a7.5 7.5 0 1 0 15 0 a7.5 7.5 0 1 0 -15 0zM337.5 525 a7.5 7.5 0 1 0 15 0 a7.5 7.5 0 1 0 -15 0zM757.5 585 a7.5 7.5 0 1 0 15 0 a7.5 7.5 0 1 0 -15 0z" fill="rgba(0, 151, 255, 1)"></path><path d="M45 345L75 315L105 315M15 345L45 315M-15 345L15 345L45 345L75 345" stroke="#3a7cc3" stroke-width="5"></path><path d="M67.5 345 a7.5 7.5 0 1 0 15 0 a7.5 7.5 0 1 0 -15 0zM97.5 315 a7.5 7.5 0 1 0 15 0 a7.5 7.5 0 1 0 -15 0zM37.5 315 a7.5 7.5 0 1 0 15 0 a7.5 7.5 0 1 0 -15 0z" fill="#3a7cc3"></path><path d="M405 585L435 555L465 555L495 555L525 555M105 525L135 525L165 525L195 525M195 585L225 555M-15 495L15 495L45 525L75 525L105 525L135 555L165 555L195 585L225 585L255 585L285 585L315 585L345 585L375 585L405 585L435 585" stroke="rgba(0, 151, 255, 1)" stroke-width="5"></path><path d="M427.5 585 a7.5 7.5 0 1 0 15 0 a7.5 7.5 0 1 0 -15 0zM517.5 555 a7.5 7.5 0 1 0 15 0 a7.5 7.5 0 1 0 -15 0zM187.5 525 a7.5 7.5 0 1 0 15 0 a7.5 7.5 0 1 0 -15 0zM217.5 555 a7.5 7.5 0 1 0 15 0 a7.5 7.5 0 1 0 -15 0z" fill="rgba(0, 151, 255, 1)"></path><path d="M555 225L585 255L615 255L645 255M645 225L675 195L705 195L735 195M195 285L225 315M285 285L315 285M465 255L495 285L525 285L555 315L585 315L615 315M255 285L285 315L315 315L345 315L375 345M525 225L555 255L585 285M-15 315L15 285L45 285L75 285L105 285L135 285L165 285L195 285L225 285L255 285L285 285L315 255L345 255L375 255L405 255L435 255L465 255L495 255L525 225L555 225L585 225L615 225L645 225L675 225L705 225L735 225L765 225L795 225" stroke="#3a7cc3" stroke-width="5"></path><path d="M787.5 225 a7.5 7.5 0 1 0 15 0 a7.5 7.5 0 1 0 -15 0zM637.5 255 a7.5 7.5 0 1 0 15 0 a7.5 7.5 0 1 0 -15 0zM727.5 195 a7.5 7.5 0 1 0 15 0 a7.5 7.5 0 1 0 -15 0zM217.5 315 a7.5 7.5 0 1 0 15 0 a7.5 7.5 0 1 0 -15 0zM307.5 285 a7.5 7.5 0 1 0 15 0 a7.5 7.5 0 1 0 -15 0zM607.5 315 a7.5 7.5 0 1 0 15 0 a7.5 7.5 0 1 0 -15 0zM367.5 345 a7.5 7.5 0 1 0 15 0 a7.5 7.5 0 1 0 -15 0zM577.5 285 a7.5 7.5 0 1 0 15 0 a7.5 7.5 0 1 0 -15 0z" fill="#3a7cc3"></path><path d="M585 615L615 585L645 585L675 585L705 585L735 615L765 615L795 615L825 615M525 615L555 585L585 585L615 555M465 615L495 645L525 645L555 645L585 645M495 615L525 585M-15 525L15 525L45 555L75 555L105 555L135 585L165 585L195 615L225 615L255 615L285 615L315 615L345 615L375 615L405 615L435 615L465 615L495 615L525 615L555 615L585 615L615 615" stroke="#3a7cc3" stroke-width="5"></path><path d="M607.5 615 a7.5 7.5 0 1 0 15 0 a7.5 7.5 0 1 0 -15 0zM817.5 615 a7.5 7.5 0 1 0 15 0 a7.5 7.5 0 1 0 -15 0zM607.5 555 a7.5 7.5 0 1 0 15 0 a7.5 7.5 0 1 0 -15 0zM577.5 645 a7.5 7.5 0 1 0 15 0 a7.5 7.5 0 1 0 -15 0zM517.5 585 a7.5 7.5 0 1 0 15 0 a7.5 7.5 0 1 0 -15 0z" fill="#3a7cc3"></path><path d="M-15 285L15 255L45 255L75 255L105 255L135 255L165 255L195 255L225 255L255 255L285 255L315 225L345 225L375 225L405 225L435 225L465 225L495 225L525 195L555 195L585 195" stroke="#3a7cc3" stroke-width="5"></path><path d="M577.5 195 a7.5 7.5 0 1 0 15 0 a7.5 7.5 0 1 0 -15 0z" fill="#3a7cc3"></path><path d="M-15 555L15 555L45 585L75 585L105 585L135 615L165 615L195 645L225 645L255 645L285 645L315 645L345 645L375 645L405 645L435 645" stroke="rgba(0, 151, 255, 1)" stroke-width="5"></path><path d="M427.5 645 a7.5 7.5 0 1 0 15 0 a7.5 7.5 0 1 0 -15 0z" fill="rgba(0, 151, 255, 1)"></path><path d="M675 165L705 135L735 135L765 135L795 135L825 135L855 135L885 135L915 135M765 195L795 165L825 165M735 165L765 165M825 195L855 195L885 195M615 165L645 195M-15 255L15 225L45 225L75 225L105 225L135 225L165 225L195 225L225 225L255 225L285 225L315 195L345 195L375 195L405 195L435 195L465 195L495 195L525 165L555 165L585 165L615 165L645 165L675 165L705 165L735 165L765 195L795 195L825 195L855 165" stroke="rgba(0, 151, 255, 1)" stroke-width="5"></path><path d="M847.5 165 a7.5 7.5 0 1 0 15 0 a7.5 7.5 0 1 0 -15 0zM907.5 135 a7.5 7.5 0 1 0 15 0 a7.5 7.5 0 1 0 -15 0zM817.5 165 a7.5 7.5 0 1 0 15 0 a7.5 7.5 0 1 0 -15 0zM757.5 165 a7.5 7.5 0 1 0 15 0 a7.5 7.5 0 1 0 -15 0zM877.5 195 a7.5 7.5 0 1 0 15 0 a7.5 7.5 0 1 0 -15 0zM637.5 195 a7.5 7.5 0 1 0 15 0 a7.5 7.5 0 1 0 -15 0z" fill="rgba(0, 151, 255, 1)"></path><path d="M315 675L345 705L375 705M405 675L435 705L465 705L495 705L525 705L555 705M45 615L75 645L105 645M135 645L165 675L195 705M-15 585L15 585L45 615L75 615L105 615L135 645L165 645L195 675L225 675L255 675L285 675L315 675L345 675L375 675L405 675L435 675" stroke="rgba(0, 151, 255, 1)" stroke-width="5"></path><path d="M427.5 675 a7.5 7.5 0 1 0 15 0 a7.5 7.5 0 1 0 -15 0zM367.5 705 a7.5 7.5 0 1 0 15 0 a7.5 7.5 0 1 0 -15 0zM547.5 705 a7.5 7.5 0 1 0 15 0 a7.5 7.5 0 1 0 -15 0zM97.5 645 a7.5 7.5 0 1 0 15 0 a7.5 7.5 0 1 0 -15 0zM187.5 705 a7.5 7.5 0 1 0 15 0 a7.5 7.5 0 1 0 -15 0z" fill="rgba(0, 151, 255, 1)"></path><path d="M255 195L285 165L315 135L345 135M135 195L165 165L195 165L225 165L255 165M105 195L135 165L165 135L195 135M45 195L75 165L105 165M405 165L435 135L465 135L495 135M-15 225L15 195L45 195L75 195L105 195L135 195L165 195L195 195L225 195L255 195L285 195L315 165L345 165L375 165L405 165L435 165L465 165L495 165L525 135L555 135L585 135" stroke="rgba(0, 151, 255, 1)" stroke-width="5"></path><path d="M577.5 135 a7.5 7.5 0 1 0 15 0 a7.5 7.5 0 1 0 -15 0zM337.5 135 a7.5 7.5 0 1 0 15 0 a7.5 7.5 0 1 0 -15 0zM247.5 165 a7.5 7.5 0 1 0 15 0 a7.5 7.5 0 1 0 -15 0zM187.5 135 a7.5 7.5 0 1 0 15 0 a7.5 7.5 0 1 0 -15 0zM97.5 165 a7.5 7.5 0 1 0 15 0 a7.5 7.5 0 1 0 -15 0zM487.5 135 a7.5 7.5 0 1 0 15 0 a7.5 7.5 0 1 0 -15 0z" fill="rgba(0, 151, 255, 1)"></path></g></g><defs><mask id="SvgjsMask1831"><rect width="1440" height="812" fill="#ffffff"></rect></mask><linearGradient x1="89.1%" y1="-19.33%" x2="10.9%" y2="119.33%" gradientUnits="userSpaceOnUse" id="SvgjsLinearGradient1832"><stop stop-color="#0e2a47" offset="0"></stop><stop stop-color="rgba(15, 64, 127, 1)" offset="1"></stop></linearGradient><mask id="SvgjsMask1833"><rect width="1440" height="812" fill="white"></rect><path d="M401.25 435 a3.75 3.75 0 1 0 7.5 0 a3.75 3.75 0 1 0 -7.5 0zM131.25 405 a3.75 3.75 0 1 0 7.5 0 a3.75 3.75 0 1 0 -7.5 0zM281.25 405 a3.75 3.75 0 1 0 7.5 0 a3.75 3.75 0 1 0 -7.5 0zM221.25 405 a3.75 3.75 0 1 0 7.5 0 a3.75 3.75 0 1 0 -7.5 0z" fill="black"></path><path d="M371.25 465 a3.75 3.75 0 1 0 7.5 0 a3.75 3.75 0 1 0 -7.5 0z" fill="black"></path><path d="M191.25 375 a3.75 3.75 0 1 0 7.5 0 a3.75 3.75 0 1 0 -7.5 0zM161.25 345 a3.75 3.75 0 1 0 7.5 0 a3.75 3.75 0 1 0 -7.5 0z" fill="black"></path><path d="M881.25 555 a3.75 3.75 0 1 0 7.5 0 a3.75 3.75 0 1 0 -7.5 0zM491.25 525 a3.75 3.75 0 1 0 7.5 0 a3.75 3.75 0 1 0 -7.5 0zM851.25 585 a3.75 3.75 0 1 0 7.5 0 a3.75 3.75 0 1 0 -7.5 0zM551.25 465 a3.75 3.75 0 1 0 7.5 0 a3.75 3.75 0 1 0 -7.5 0zM671.25 525 a3.75 3.75 0 1 0 7.5 0 a3.75 3.75 0 1 0 -7.5 0zM791.25 585 a3.75 3.75 0 1 0 7.5 0 a3.75 3.75 0 1 0 -7.5 0zM341.25 525 a3.75 3.75 0 1 0 7.5 0 a3.75 3.75 0 1 0 -7.5 0zM761.25 585 a3.75 3.75 0 1 0 7.5 0 a3.75 3.75 0 1 0 -7.5 0z" fill="black"></path><path d="M71.25 345 a3.75 3.75 0 1 0 7.5 0 a3.75 3.75 0 1 0 -7.5 0zM101.25 315 a3.75 3.75 0 1 0 7.5 0 a3.75 3.75 0 1 0 -7.5 0zM41.25 315 a3.75 3.75 0 1 0 7.5 0 a3.75 3.75 0 1 0 -7.5 0z" fill="black"></path><path d="M431.25 585 a3.75 3.75 0 1 0 7.5 0 a3.75 3.75 0 1 0 -7.5 0zM521.25 555 a3.75 3.75 0 1 0 7.5 0 a3.75 3.75 0 1 0 -7.5 0zM191.25 525 a3.75 3.75 0 1 0 7.5 0 a3.75 3.75 0 1 0 -7.5 0zM221.25 555 a3.75 3.75 0 1 0 7.5 0 a3.75 3.75 0 1 0 -7.5 0z" fill="black"></path><path d="M791.25 225 a3.75 3.75 0 1 0 7.5 0 a3.75 3.75 0 1 0 -7.5 0zM641.25 255 a3.75 3.75 0 1 0 7.5 0 a3.75 3.75 0 1 0 -7.5 0zM731.25 195 a3.75 3.75 0 1 0 7.5 0 a3.75 3.75 0 1 0 -7.5 0zM221.25 315 a3.75 3.75 0 1 0 7.5 0 a3.75 3.75 0 1 0 -7.5 0zM311.25 285 a3.75 3.75 0 1 0 7.5 0 a3.75 3.75 0 1 0 -7.5 0zM611.25 315 a3.75 3.75 0 1 0 7.5 0 a3.75 3.75 0 1 0 -7.5 0zM371.25 345 a3.75 3.75 0 1 0 7.5 0 a3.75 3.75 0 1 0 -7.5 0zM581.25 285 a3.75 3.75 0 1 0 7.5 0 a3.75 3.75 0 1 0 -7.5 0z" fill="black"></path><path d="M611.25 615 a3.75 3.75 0 1 0 7.5 0 a3.75 3.75 0 1 0 -7.5 0zM821.25 615 a3.75 3.75 0 1 0 7.5 0 a3.75 3.75 0 1 0 -7.5 0zM611.25 555 a3.75 3.75 0 1 0 7.5 0 a3.75 3.75 0 1 0 -7.5 0zM581.25 645 a3.75 3.75 0 1 0 7.5 0 a3.75 3.75 0 1 0 -7.5 0zM521.25 585 a3.75 3.75 0 1 0 7.5 0 a3.75 3.75 0 1 0 -7.5 0z" fill="black"></path><path d="M581.25 195 a3.75 3.75 0 1 0 7.5 0 a3.75 3.75 0 1 0 -7.5 0z" fill="black"></path><path d="M431.25 645 a3.75 3.75 0 1 0 7.5 0 a3.75 3.75 0 1 0 -7.5 0z" fill="black"></path><path d="M851.25 165 a3.75 3.75 0 1 0 7.5 0 a3.75 3.75 0 1 0 -7.5 0zM911.25 135 a3.75 3.75 0 1 0 7.5 0 a3.75 3.75 0 1 0 -7.5 0zM821.25 165 a3.75 3.75 0 1 0 7.5 0 a3.75 3.75 0 1 0 -7.5 0zM761.25 165 a3.75 3.75 0 1 0 7.5 0 a3.75 3.75 0 1 0 -7.5 0zM881.25 195 a3.75 3.75 0 1 0 7.5 0 a3.75 3.75 0 1 0 -7.5 0zM641.25 195 a3.75 3.75 0 1 0 7.5 0 a3.75 3.75 0 1 0 -7.5 0z" fill="black"></path><path d="M431.25 675 a3.75 3.75 0 1 0 7.5 0 a3.75 3.75 0 1 0 -7.5 0zM371.25 705 a3.75 3.75 0 1 0 7.5 0 a3.75 3.75 0 1 0 -7.5 0zM551.25 705 a3.75 3.75 0 1 0 7.5 0 a3.75 3.75 0 1 0 -7.5 0zM101.25 645 a3.75 3.75 0 1 0 7.5 0 a3.75 3.75 0 1 0 -7.5 0zM191.25 705 a3.75 3.75 0 1 0 7.5 0 a3.75 3.75 0 1 0 -7.5 0z" fill="black"></path><path d="M581.25 135 a3.75 3.75 0 1 0 7.5 0 a3.75 3.75 0 1 0 -7.5 0zM341.25 135 a3.75 3.75 0 1 0 7.5 0 a3.75 3.75 0 1 0 -7.5 0zM251.25 165 a3.75 3.75 0 1 0 7.5 0 a3.75 3.75 0 1 0 -7.5 0zM191.25 135 a3.75 3.75 0 1 0 7.5 0 a3.75 3.75 0 1 0 -7.5 0zM101.25 165 a3.75 3.75 0 1 0 7.5 0 a3.75 3.75 0 1 0 -7.5 0zM491.25 135 a3.75 3.75 0 1 0 7.5 0 a3.75 3.75 0 1 0 -7.5 0z" fill="black"></path></mask></defs></svg>