<svg xmlns="http://www.w3.org/2000/svg" version="1.1" xmlns:xlink="http://www.w3.org/1999/xlink" xmlns:svgjs="http://svgjs.dev/svgjs" width="375" height="812" preserveAspectRatio="none" viewBox="0 0 375 812"><g mask="url(&quot;#SvgjsMask1821&quot;)" fill="none"><rect width="375" height="812" x="0" y="0" fill="url(&quot;#SvgjsLinearGradient1822&quot;)"></rect><g mask="url(&quot;#SvgjsMask1823&quot;)"><path d="M-15 435L15 465" stroke="rgba(0, 151, 255, 1)" stroke-width="5"></path><path d="M7.5 465 a7.5 7.5 0 1 0 15 0 a7.5 7.5 0 1 0 -15 0z" fill="rgba(0, 151, 255, 1)"></path><path d="M45 375L75 405L105 405L135 405M15 375L45 405M-15 375L15 375L45 375L75 375L105 345L135 315L165 315L195 315" stroke="#3a7cc3" stroke-width="5"></path><path d="M187.5 315 a7.5 7.5 0 1 0 15 0 a7.5 7.5 0 1 0 -15 0zM127.5 405 a7.5 7.5 0 1 0 15 0 a7.5 7.5 0 1 0 -15 0zM37.5 405 a7.5 7.5 0 1 0 15 0 a7.5 7.5 0 1 0 -15 0z" fill="#3a7cc3"></path><path d="M-15 465L15 495L45 495" stroke="rgba(0, 151, 255, 1)" stroke-width="5"></path><path d="M37.5 495 a7.5 7.5 0 1 0 15 0 a7.5 7.5 0 1 0 -15 0z" fill="rgba(0, 151, 255, 1)"></path><path d="M45 345L75 315L105 285M-15 345L15 345L45 345L75 345L105 315" stroke="rgba(0, 151, 255, 1)" stroke-width="5"></path><path d="M97.5 315 a7.5 7.5 0 1 0 15 0 a7.5 7.5 0 1 0 -15 0zM97.5 285 a7.5 7.5 0 1 0 15 0 a7.5 7.5 0 1 0 -15 0z" fill="rgba(0, 151, 255, 1)"></path><path d="M135 525L165 555M75 525L105 495L135 495L165 495L195 495M-15 495L15 525L45 525L75 525L105 525L135 525L165 525" stroke="#3a7cc3" stroke-width="5"></path><path d="M157.5 525 a7.5 7.5 0 1 0 15 0 a7.5 7.5 0 1 0 -15 0zM157.5 555 a7.5 7.5 0 1 0 15 0 a7.5 7.5 0 1 0 -15 0zM187.5 495 a7.5 7.5 0 1 0 15 0 a7.5 7.5 0 1 0 -15 0z" fill="#3a7cc3"></path><path d="M-15 525L15 555L45 555L75 555L105 555L135 585L165 585L195 585" stroke="#3a7cc3" stroke-width="5"></path><path d="M187.5 585 a7.5 7.5 0 1 0 15 0 a7.5 7.5 0 1 0 -15 0z" fill="#3a7cc3"></path><path d="M15 285L45 315M-15 285L15 285L45 285" stroke="#3a7cc3" stroke-width="5"></path><path d="M37.5 285 a7.5 7.5 0 1 0 15 0 a7.5 7.5 0 1 0 -15 0zM37.5 315 a7.5 7.5 0 1 0 15 0 a7.5 7.5 0 1 0 -15 0z" fill="#3a7cc3"></path><path d="M-15 255L15 255L45 255L75 255L105 255" stroke="#3a7cc3" stroke-width="5"></path><path d="M97.5 255 a7.5 7.5 0 1 0 15 0 a7.5 7.5 0 1 0 -15 0z" fill="#3a7cc3"></path><path d="M15 585L45 615L75 615L105 615M135 615L165 645L195 645M-15 585L15 585L45 585L75 585L105 585L135 615L165 615L195 615" stroke="#3a7cc3" stroke-width="5"></path><path d="M187.5 615 a7.5 7.5 0 1 0 15 0 a7.5 7.5 0 1 0 -15 0zM97.5 615 a7.5 7.5 0 1 0 15 0 a7.5 7.5 0 1 0 -15 0zM187.5 645 a7.5 7.5 0 1 0 15 0 a7.5 7.5 0 1 0 -15 0z" fill="#3a7cc3"></path><path d="M15 225L45 195L75 195M-15 225L15 225L45 225L75 225" stroke="rgba(0, 151, 255, 1)" stroke-width="5"></path><path d="M67.5 225 a7.5 7.5 0 1 0 15 0 a7.5 7.5 0 1 0 -15 0zM67.5 195 a7.5 7.5 0 1 0 15 0 a7.5 7.5 0 1 0 -15 0z" fill="rgba(0, 151, 255, 1)"></path></g></g><defs><mask id="SvgjsMask1821"><rect width="375" height="812" fill="#ffffff"></rect></mask><linearGradient x1="129.13%" y1="13.45%" x2="-29.13%" y2="86.55%" gradientUnits="userSpaceOnUse" id="SvgjsLinearGradient1822"><stop stop-color="#0e2a47" offset="0"></stop><stop stop-color="rgba(15, 64, 127, 1)" offset="1"></stop></linearGradient><mask id="SvgjsMask1823"><rect width="375" height="812" fill="white"></rect><path d="M11.25 465 a3.75 3.75 0 1 0 7.5 0 a3.75 3.75 0 1 0 -7.5 0z" fill="black"></path><path d="M191.25 315 a3.75 3.75 0 1 0 7.5 0 a3.75 3.75 0 1 0 -7.5 0zM131.25 405 a3.75 3.75 0 1 0 7.5 0 a3.75 3.75 0 1 0 -7.5 0zM41.25 405 a3.75 3.75 0 1 0 7.5 0 a3.75 3.75 0 1 0 -7.5 0z" fill="black"></path><path d="M41.25 495 a3.75 3.75 0 1 0 7.5 0 a3.75 3.75 0 1 0 -7.5 0z" fill="black"></path><path d="M101.25 315 a3.75 3.75 0 1 0 7.5 0 a3.75 3.75 0 1 0 -7.5 0zM101.25 285 a3.75 3.75 0 1 0 7.5 0 a3.75 3.75 0 1 0 -7.5 0z" fill="black"></path><path d="M161.25 525 a3.75 3.75 0 1 0 7.5 0 a3.75 3.75 0 1 0 -7.5 0zM161.25 555 a3.75 3.75 0 1 0 7.5 0 a3.75 3.75 0 1 0 -7.5 0zM191.25 495 a3.75 3.75 0 1 0 7.5 0 a3.75 3.75 0 1 0 -7.5 0z" fill="black"></path><path d="M191.25 585 a3.75 3.75 0 1 0 7.5 0 a3.75 3.75 0 1 0 -7.5 0z" fill="black"></path><path d="M41.25 285 a3.75 3.75 0 1 0 7.5 0 a3.75 3.75 0 1 0 -7.5 0zM41.25 315 a3.75 3.75 0 1 0 7.5 0 a3.75 3.75 0 1 0 -7.5 0z" fill="black"></path><path d="M101.25 255 a3.75 3.75 0 1 0 7.5 0 a3.75 3.75 0 1 0 -7.5 0z" fill="black"></path><path d="M191.25 615 a3.75 3.75 0 1 0 7.5 0 a3.75 3.75 0 1 0 -7.5 0zM101.25 615 a3.75 3.75 0 1 0 7.5 0 a3.75 3.75 0 1 0 -7.5 0zM191.25 645 a3.75 3.75 0 1 0 7.5 0 a3.75 3.75 0 1 0 -7.5 0z" fill="black"></path><path d="M71.25 225 a3.75 3.75 0 1 0 7.5 0 a3.75 3.75 0 1 0 -7.5 0zM71.25 195 a3.75 3.75 0 1 0 7.5 0 a3.75 3.75 0 1 0 -7.5 0z" fill="black"></path></mask></defs></svg>